TITLE ""
FILE "DISC2Track06.mp3" MP3
  TRACK 01 AUDIO
    TITLE "DISC2Track06_01"
    INDEX 01 00:00:00
  TRACK 02 AUDIO
    TITLE "DISC2Track06_02"
    INDEX 01 00:01:31
  TRACK 03 AUDIO
    TITLE "DISC2Track06_03"
    INDEX 01 00:01:43
  TRACK 04 AUDIO
    TITLE "DISC2Track06_04"
    INDEX 01 00:06:01
  TRACK 05 AUDIO
    TITLE "DISC2Track06_05"
    INDEX 01 00:10:11
  TRACK 06 AUDIO
    TITLE "DISC2Track06_06"
    INDEX 01 00:13:74
  TRACK 07 AUDIO
    TITLE "DISC2Track06_07"
    INDEX 01 00:14:16
  TRACK 08 AUDIO
    TITLE "DISC2Track06_08"
    INDEX 01 00:17:46
  TRACK 09 AUDIO
    TITLE "DISC2Track06_09"
    INDEX 01 00:21:12
  TRACK 10 AUDIO
    TITLE "DISC2Track06_10"
    INDEX 01 00:24:21
  TRACK 11 AUDIO
    TITLE "DISC2Track06_11"
    INDEX 01 00:24:36
  TRACK 12 AUDIO
    TITLE "DISC2Track06_12"
    INDEX 01 00:26:33
  TRACK 13 AUDIO
    TITLE "DISC2Track06_13"
    INDEX 01 00:29:08
  TRACK 14 AUDIO
    TITLE "DISC2Track06_14"
    INDEX 01 00:31:36
  TRACK 15 AUDIO
    TITLE "DISC2Track06_15"
    INDEX 01 00:31:54
  TRACK 16 AUDIO
    TITLE "DISC2Track06_16"
    INDEX 01 00:35:16
  TRACK 17 AUDIO
    TITLE "DISC2Track06_17"
    INDEX 01 00:39:08
  TRACK 18 AUDIO
    TITLE "DISC2Track06_18"
    INDEX 01 00:42:44
  TRACK 19 AUDIO
    TITLE "DISC2Track06_19"
    INDEX 01 00:42:64
  TRACK 20 AUDIO
    TITLE "DISC2Track06_20"
    INDEX 01 00:45:05
  TRACK 21 AUDIO
    TITLE "DISC2Track06_21"
    INDEX 01 00:47:49
  TRACK 22 AUDIO
    TITLE "DISC2Track06_22"
    INDEX 01 00:49:56
  TRACK 23 AUDIO
    TITLE "DISC2Track06_23"
    INDEX 01 00:49:71
  TRACK 24 AUDIO
    TITLE "DISC2Track06_24"
    INDEX 01 00:51:29
  TRACK 25 AUDIO
    TITLE "DISC2Track06_25"
    INDEX 01 00:53:34
  TRACK 26 AUDIO
    TITLE "DISC2Track06_26"
    INDEX 01 00:55:11
  TRACK 27 AUDIO
    TITLE "DISC2Track06_27"
    INDEX 01 00:55:29
  TRACK 28 AUDIO
    TITLE "DISC2Track06_28"
    INDEX 01 00:58:23
  TRACK 29 AUDIO
    TITLE "DISC2Track06_29"
    INDEX 01 01:01:33
  TRACK 30 AUDIO
    TITLE "DISC2Track06_30"
    INDEX 01 01:04:14
  TRACK 31 AUDIO
    TITLE "DISC2Track06_31"
    INDEX 01 01:04:32
  TRACK 32 AUDIO
    TITLE "DISC2Track06_32"
    INDEX 01 01:07:38
  TRACK 33 AUDIO
    TITLE "DISC2Track06_33"
    INDEX 01 01:10:09
  TRACK 34 AUDIO
    TITLE "DISC2Track06_34"
    INDEX 01 01:12:29
  TRACK 35 AUDIO
    TITLE "DISC2Track06_35"
    INDEX 01 01:12:45
  TRACK 36 AUDIO
    TITLE "DISC2Track06_36"
    INDEX 01 01:16:19
  TRACK 37 AUDIO
    TITLE "DISC2Track06_37"
    INDEX 01 01:19:24
  TRACK 38 AUDIO
    TITLE "DISC2Track06_38"
    INDEX 01 01:21:66
  TRACK 39 AUDIO
    TITLE "DISC2Track06_39"
    INDEX 01 01:22:08
  TRACK 40 AUDIO
    TITLE "DISC2Track06_40"
    INDEX 01 01:25:28
  TRACK 41 AUDIO
    TITLE "DISC2Track06_41"
    INDEX 01 01:28:23
  TRACK 42 AUDIO
    TITLE "DISC2Track06_42"
    INDEX 01 01:30:66
  TRACK 43 AUDIO
    TITLE "DISC2Track06_43"
    INDEX 01 01:31:09
  TRACK 44 AUDIO
    TITLE "DISC2Track06_44"
    INDEX 01 01:34:43
  TRACK 45 AUDIO
    TITLE "DISC2Track06_45"
    INDEX 01 01:38:35
  TRACK 46 AUDIO
    TITLE "DISC2Track06_46"
    INDEX 01 01:41:66
